# File created by Blade
# Date/Time:  Tue Jan 27 18:01:49 2015
# Frame Rate: 120.000 fps
#------------------------------------------------------
:FULLY-SPECIFIED
:DEGREES
2567
root -1.703962 31.964631 -6.285485 7.234361 16.554744 3.585004
Spine -5.729313 -15.765395 -6.140574
Head -1.089314 -12.610726 10.278488
LeftShoulder -12.938509 15.858961 7.596550
LeftArm 22.147044 40.731055 -73.406312
LeftForeArm -2.207262 0.000000 12.346647
LeftHand -11.531326 -0.000000 -6.080160
LeftHandThumb1 -26.253704 0.000000 33.147579
RightShoulder -14.642129 17.290962 -46.376924
RightArm 7.829574 62.664504 24.572386
RightForeArm 29.188011 -0.000000 104.693504
RightHand -3.382933 -0.000000 9.727779
RightHandThumb1 -24.326973 -0.000000 -32.862282
LeftUpLeg -3.018067 -5.178564 0.290587
LeftLeg -0.153017 -0.000000 0.000000
LeftFoot -13.769506 12.772882 -24.338038
LeftToeBase 8.691516 -0.000000 -0.000000
RightUpLeg 1.818320 -9.139888 -2.342604
RightLeg -3.160688 -0.000000 0.000000
RightFoot -16.235885 -18.176034 11.308065
RightToeBase 5.239710 -0.000000 -0.000000
2568
root -1.705357 31.964500 -6.286092 7.215148 16.536658 3.584869
Spine -5.723151 -15.777521 -6.144670
Head -1.096287 -12.611847 10.259984
LeftShoulder -12.934620 15.846272 7.595970
LeftArm 22.128562 40.721049 -73.424877
LeftForeArm -2.210109 -0.000000 12.342566
LeftHand -11.564750 -0.000000 -6.113191
LeftHandThumb1 -26.253704 0.000000 33.147579
RightShoulder -14.642138 17.254138 -46.362762
RightArm 7.893609 62.710508 24.624292
RightForeArm 29.276451 -0.000000 104.776190
RightHand -3.433984 -0.000000 9.456378
RightHandThumb1 -24.326973 -0.000000 -32.862282
LeftUpLeg -2.995547 -5.165202 0.290418
LeftLeg -0.157792 -0.000000 0.000000
LeftFoot -13.755744 12.774899 -24.321988
LeftToeBase 8.684665 -0.000000 -0.000000
RightUpLeg 1.833341 -9.142137 -2.344997
RightLeg -3.162781 -0.000000 0.000000
RightFoot -16.235686 -18.157121 11.346402
RightToeBase 5.445742 -0.000000 -0.000000
2569
root -1.706838 31.964443 -6.287159 7.201810 16.520647 3.582296
Spine -5.719853 -15.789452 -6.143524
Head -1.110555 -12.606491 10.247155
LeftShoulder -12.938073 15.844095 7.594205
LeftArm 22.124779 40.714193 -73.430978
LeftForeArm -2.219594 0.000000 12.349743
LeftHand -11.575653 -0.000000 -6.144868
LeftHandThumb1 -26.253704 0.000000 33.147579
RightShoulder -14.649931 17.293485 -46.361738
RightArm 7.898111 62.689127 24.616544
RightForeArm 29.278555 0.000000 104.857990
RightHand -3.399504 -0.000000 9.418029
RightHandThumb1 -24.326973 -0.000000 -32.862282
LeftUpLeg -2.981789 -5.149823 0.292750
LeftLeg -0.158748 -0.000000 0.000000
LeftFoot -13.764322 12.760984 -24.343066
LeftToeBase 8.702485 -0.000000 -0.000000
RightUpLeg 1.842662 -9.128292 -2.344861
RightLeg -3.168001 -0.000000 0.000000
RightFoot -16.219372 -18.116652 11.396087
RightToeBase 5.146091 -0.000000 -0.000000
2570
root -1.707962 31.964662 -6.288264 7.194623 16.502981 3.582516
Spine -5.726004 -15.797881 -6.143418
Head -1.115837 -12.630656 10.233328
LeftShoulder -12.940155 15.842277 7.589027
LeftArm 22.126512 40.708527 -73.438040
LeftForeArm -2.200262 0.000000 12.340162
LeftHand -11.566039 0.000000 -6.100532
LeftHandThumb1 -26.253704 0.000000 33.147579
RightShoulder -14.646921 17.277798 -46.340056
RightArm 7.924434 62.714790 24.618992
RightForeArm 29.242156 -0.000000 104.944119
RightHand -3.376288 -0.000000 9.460417
RightHandThumb1 -24.326973 -0.000000 -32.862282
LeftUpLeg -2.973474 -5.135689 0.291614
LeftLeg -0.162880 -0.000000 0.000000
LeftFoot -13.761617 12.764423 -24.353211
LeftToeBase 8.738648 -0.000000 -0.000000
RightUpLeg 1.842302 -9.124015 -2.345585
RightLeg -3.161483 -0.000000 0.000000
RightFoot -16.227217 -18.125676 11.319929
RightToeBase 5.231157 -0.000000 -0.000000
2571
root -1.708659 31.964755 -6.289405 7.183357 16.477925 3.588074
Spine -5.723914 -15.795014 -6.153674
Head -1.122498 -12.632771 10.218481
LeftShoulder -12.935693 15.834839 7.590632
LeftArm 22.108828 40.703282 -73.453871
LeftForeArm -2.174068 -0.000000 12.350320
LeftHand -11.592355 -0.000000 -6.097650
LeftHandThumb1 -26.253704 0.000000 33.147579
RightShoulder -14.645697 17.263265 -46.322187
RightArm 7.953073 62.754329 24.634658
RightForeArm 29.222084 -0.000000 105.035677
RightHand -3.416297 -0.000000 9.484290
RightHandThumb1 -24.326973 -0.000000 -32.862282
LeftUpLeg -2.961734 -5.111610 0.281923
LeftLeg -0.161101 -0.000000 0.000000
LeftFoot -13.767779 12.768398 -24.355010
LeftToeBase 8.723367 -0.000000 -0.000000
RightUpLeg 1.846857 -9.118707 -2.357065
RightLeg -3.153425 -0.000000 0.000000
RightFoot -16.223668 -18.094286 11.303488
RightToeBase 5.225447 -0.000000 -0.000000
2572
root -1.710529 31.964870 -6.290749 7.173010 16.463083 3.580928
Spine -5.725161 -15.801341 -6.149358
Head -1.131629 -12.643056 10.211769
LeftShoulder -12.939257 15.824817 7.594559
LeftArm 22.112411 40.719633 -73.459976
LeftForeArm -2.172548 -0.000000 12.333262
LeftHand -11.611707 -0.000000 -6.106726
LeftHandThumb1 -26.253704 0.000000 33.147579
RightShoulder -14.649926 17.306629 -46.319438
RightArm 7.936295 62.741521 24.608447
RightForeArm 29.155948 -0.000000 105.120533
RightHand -3.419345 -0.000000 9.519869
RightHandThumb1 -24.326973 -0.000000 -32.862282
LeftUpLeg -2.955790 -5.089659 0.289359
LeftLeg -0.159001 -0.000000 0.000000
LeftFoot -13.758537 12.758969 -24.338528
LeftToeBase 8.747211 -0.000000 -0.000000
RightUpLeg 1.850307 -9.090596 -2.348016
RightLeg -3.157677 -0.000000 0.000000
RightFoot -16.221224 -18.121450 11.317820
RightToeBase 5.241464 -0.000000 -0.000000
2573
root -1.711722 31.964987 -6.292663 7.167354 16.446642 3.579200
Spine -5.727562 -15.804101 -6.146458
Head -1.143788 -12.654323 10.197650
LeftShoulder -12.939029 15.815577 7.590768
LeftArm 22.107044 40.730182 -73.462366
LeftForeArm -2.160553 0.000000 12.332746
LeftHand -11.635710 0.000000 -6.087792
LeftHandThumb1 -26.253704 0.000000 33.147579
RightShoulder -14.663989 17.327278 -46.324315
RightArm 7.963691 62.748778 24.637974
RightForeArm 29.064899 0.000000 105.199020
RightHand -3.352939 -0.000000 9.537378
RightHandThumb1 -24.326973 -0.000000 -32.862282
LeftUpLeg -2.954630 -5.079177 0.290685
LeftLeg -0.154444 -0.000000 0.000000
LeftFoot -13.760808 12.766802 -24.337534
LeftToeBase 8.695496 -0.000000 -0.000000
RightUpLeg 1.847159 -9.093736 -2.346241
RightLeg -3.153792 -0.000000 0.000000
RightFoot -16.219680 -18.109864 11.305818
RightToeBase 5.266428 -0.000000 -0.000000
2574
root -1.713813 31.965119 -6.294483 7.161334 16.432588 3.574222
Spine -5.726348 -15.813209 -6.142196
Head -1.134927 -12.651751 10.200494
LeftShoulder -12.951818 15.806355 7.585708
LeftArm 22.105951 40.739352 -73.458123
LeftForeArm -2.159418 -0.000000 12.325338
LeftHand -11.600048 -0.000000 -6.103345
LeftHandThumb1 -26.253704 0.000000 33.147579
RightShoulder -14.677776 17.336253 -46.323188
RightArm 7.971433 62.752495 24.632218
RightForeArm 29.125460 -0.000000 105.270180
RightHand -3.334565 -0.000000 9.525478
RightHandThumb1 -24.326973 -0.000000 -32.862282
LeftUpLeg -2.952698 -5.086454 0.295939
LeftLeg -0.153094 -0.000000 0.000000
LeftFoot -13.761750 12.782700 -24.333655
LeftToeBase 8.679804 -0.000000 -0.000000
RightUpLeg 1.845799 -9.074316 -2.339200
RightLeg -3.155310 -0.000000 0.000000
RightFoot -16.213399 -18.117932 11.302989
RightToeBase 5.251287 -0.000000 -0.000000
2575
root -1.714853 31.965012 -6.296675 7.155909 16.413894 3.572921
Spine -5.731447 -15.814761 -6.137591
Head -1.143432 -12.663345 10.179582
LeftShoulder -12.947730 15.803618 7.583772
LeftArm 22.099681 40.742422 -73.464155
LeftForeArm -2.144577 0.000000 12.319518
LeftHand -11.620612 0.000000 -6.089438
LeftHandThumb1 -26.253704 0.000000 33.147579
RightShoulder -14.685080 17.369741 -46.334647
RightArm 7.985046 62.730765 24.650608
RightForeArm 29.125338 0.000000 105.361978
RightHand -3.390383 -0.000000 9.419935
RightHandThumb1 -24.326973 -0.000000 -32.862282
LeftUpLeg -2.951125 -5.072197 0.295270
LeftLeg -0.149622 -0.000000 0.000000
LeftFoot -13.770899 12.784804 -24.351101
LeftToeBase 8.750078 -0.000000 -0.000000
RightUpLeg 1.843258 -9.058385 -2.340006
RightLeg -3.154191 -0.000000 0.000000
RightFoot -16.206861 -18.109807 11.299296
RightToeBase 5.255192 -0.000000 -0.000000
